<svg width="100%" height="100%" viewBox="0 0 542 476" version="1.1" xmlns="http://www.w3.org/2000/svg" xmlns:xlink="http://www.w3.org/1999/xlink">
    <title>Pattern</title>
    <g id="Page-1" stroke="none" stroke-width="1" fill="none" fill-rule="evenodd" opacity="0.08">
        <g id="Mega-Menu-2" transform="translate(-549.000000, -296.000000)" stroke="#F4F4F4">
            <g id="Rectangle" transform="translate(820.000000, 534.000000) scale(-1, 1) translate(-820.000000, -534.000000) translate(549.000000, 296.000000)">
                <path d="M196.142189,118.5 L133,229.985427 L69.8578111,118.5 L196.142189,118.5 Z" style="stroke-dasharray: 383, 385; stroke-dashoffset: 0;"></path>
                <path d="M334.142189,118.5 L271,229.985427 L207.857811,118.5 L334.142189,118.5 Z" style="stroke-dasharray: 383, 385; stroke-dashoffset: 0;"></path>
                <path d="M472.142189,118.5 L409,229.985427 L345.857811,118.5 L472.142189,118.5 Z" style="stroke-dasharray: 383, 385; stroke-dashoffset: 0;"></path>
                <path d="M472.142189,0.5 L409,111.985427 L345.857811,0.5 L472.142189,0.5 Z" transform="translate(409.000000, 56.500000) scale(1, -1) translate(-409.000000, -56.500000) " style="stroke-dasharray: 383, 385; stroke-dashoffset: 0;"></path>
                <path d="M196.142189,242.5 L133,353.985427 L69.8578111,242.5 L196.142189,242.5 Z" transform="translate(133.000000, 298.500000) scale(1, -1) translate(-133.000000, -298.500000) " style="stroke-dasharray: 383, 385; stroke-dashoffset: 0;"></path>
                <path d="M334.142189,242.5 L271,353.985427 L207.857811,242.5 L334.142189,242.5 Z" transform="translate(271.000000, 298.500000) scale(1, -1) translate(-271.000000, -298.500000) " style="stroke-dasharray: 383, 385; stroke-dashoffset: 0;"></path>
                <path d="M472.142189,242.5 L409,353.985427 L345.857811,242.5 L472.142189,242.5 Z" transform="translate(409.000000, 298.500000) scale(1, -1) translate(-409.000000, -298.500000) " style="stroke-dasharray: 383, 385; stroke-dashoffset: 0;"></path>
                <path d="M265.142189,121.5 L202,232.985427 L138.857811,121.5 L265.142189,121.5 Z" transform="translate(202.000000, 177.500000) scale(1, -1) translate(-202.000000, -177.500000) " style="stroke-dasharray: 383, 385; stroke-dashoffset: 0;"></path>
                <path d="M403.142189,121.5 L340,232.985427 L276.857811,121.5 L403.142189,121.5 Z" transform="translate(340.000000, 177.500000) scale(1, -1) translate(-340.000000, -177.500000) " style="stroke-dasharray: 383, 385; stroke-dashoffset: 0;"></path>
                <path d="M127.142189,239.5 L64,350.985427 L0.857811128,239.5 L127.142189,239.5 Z" style="stroke-dasharray: 383, 385; stroke-dashoffset: 0;"></path>
                <path d="M265.142189,239.5 L202,350.985427 L138.857811,239.5 L265.142189,239.5 Z" style="stroke-dasharray: 383, 385; stroke-dashoffset: 0;"></path>
                <path d="M403.142189,239.5 L340,350.985427 L276.857811,239.5 L403.142189,239.5 Z" style="stroke-dasharray: 383, 385; stroke-dashoffset: 0;"></path>
                <path d="M541.142189,239.5 L478,350.985427 L414.857811,239.5 L541.142189,239.5 Z" style="stroke-dasharray: 383, 385; stroke-dashoffset: 0;"></path>
                <path d="M334.142189,360.5 L271,471.985427 L207.857811,360.5 L334.142189,360.5 Z" style="stroke-dasharray: 383, 385; stroke-dashoffset: 0;"></path>
                <path d="M472.142189,360.5 L409,471.985427 L345.857811,360.5 L472.142189,360.5 Z" style="stroke-dasharray: 383, 385; stroke-dashoffset: 0;"></path>
                <path d="M403.142189,363.5 L340,474.985427 L276.857811,363.5 L403.142189,363.5 Z" transform="translate(340.000000, 419.500000) scale(1, -1) translate(-340.000000, -419.500000) " style="stroke-dasharray: 383, 385; stroke-dashoffset: 0;"></path>
            </g>
        </g>
    </g>
</svg>